<svg width="66" height="93" viewBox="0 0 66 93" fill="none" xmlns="http://www.w3.org/2000/svg">
<g id="Shapes">
<path id="Shape" fill-rule="evenodd" clip-rule="evenodd" d="M65.8656 0.624558L65.7342 0.104156C65.7213 -0.0890125 65.0563 0.00495778 64.7295 0.234831C64.2353 0.609684 63.7929 1.02951 63.4324 1.46585C63.0838 1.87494 62.8627 2.29257 62.8016 2.65715C62.7697 2.80971 62.5096 3.21834 62.2422 3.63849C61.968 4.06932 61.6861 4.51227 61.6346 4.70365C61.5439 5.04598 61.0962 6.02676 60.6785 6.94215C60.3241 7.71875 59.9911 8.44829 59.9158 8.70099C59.5792 9.89102 59.1355 11.1202 58.6908 12.3522C58.2579 13.5516 57.824 14.7536 57.4871 15.9247C57.4034 16.1605 57.299 16.4019 57.1747 16.6469C57.0717 16.8428 56.9829 17.0363 56.9088 17.2262C56.7837 17.6138 56.6702 17.9978 56.5566 18.3817C56.373 19.003 56.1893 19.6243 55.9563 20.2617C55.8617 20.5183 55.7664 20.7754 55.671 21.0327C55.019 22.7916 54.3628 24.5618 53.8864 26.2708C53.8466 26.4919 53.7578 26.7303 53.6235 26.9767C53.0203 27.9381 52.7642 28.7816 52.5084 29.6239C52.4169 29.9253 52.3255 30.2265 52.2182 30.5329L52.2079 30.5588C52.1678 30.6745 52.0691 31.0767 51.9421 31.6194L51.1613 35.0439C51.052 35.5232 50.9604 35.9191 50.9038 36.1484L50.8473 36.3569C50.6131 36.7974 50.4419 37.2266 50.3376 37.6346L48.7103 45.2568C48.5686 46.9206 48.5915 48.5118 48.7789 50.0192C48.8851 49.9988 48.999 49.9603 49.114 49.9061L49.1927 49.8702C49.2662 49.8336 49.344 49.7877 49.4216 49.7418C49.6838 49.587 49.9444 49.4331 50.0381 49.6422C50.0848 49.7441 50.8035 49.6921 51.1227 49.2592C51.5041 48.7936 51.8305 48.3231 52.0946 47.8586C52.5013 46.9872 52.8498 46.1283 53.1384 45.286C53.2383 44.6945 53.589 44.0196 54.142 43.3544C54.3628 43.1178 54.431 42.9087 54.4987 42.701C54.5229 42.6268 54.547 42.5528 54.5781 42.4777C54.8858 41.7704 55.1864 41.0657 55.4869 40.3616C56.0452 39.0529 56.6028 37.7461 57.2035 36.4271C57.5472 35.6276 59.3248 29.6708 59.1444 29.1849C59.0964 28.881 59.1379 28.532 59.2667 28.1551C59.7305 26.0172 60.4345 23.796 61.3714 21.5147C61.6588 20.8469 61.8903 20.1927 62.0643 19.5566L64.3615 10.9913C64.4361 10.6296 64.5161 10.2642 64.5964 9.89709C64.8153 8.8963 65.037 7.88303 65.1616 6.89872C65.1988 6.58122 65.2661 6.1172 65.3476 5.58843L65.6649 3.60313C65.6998 3.40312 65.7385 3.20495 65.7759 3.01376C65.8534 2.6173 65.9251 2.25084 65.9444 1.96029C65.9548 1.80342 65.9678 1.66422 65.9786 1.54845C65.9975 1.34636 66.0098 1.21563 65.9897 1.18687L65.8656 0.624558ZM38.0701 17.5934L38.0703 17.5941L38.0703 17.5942C38.1507 17.8977 38.231 18.2005 38.2802 18.5202L38.2788 18.6142C38.2677 18.8672 38.2127 19.5497 38.1474 20.361L38.1474 20.3611C38.0447 21.6364 37.9163 23.2299 37.8927 23.9733C37.8331 25.2392 37.6888 26.5365 37.4605 27.86L36.6503 31.9228C36.3836 33.2718 36.1233 34.6145 35.8781 35.9484C35.7555 36.5503 35.5825 37.1659 35.3602 37.7908C34.6328 39.927 34.1129 42.0207 33.8059 44.0505C33.7043 44.4061 33.6849 44.7399 33.7487 45.0339C33.9139 45.4911 32.8326 50.7631 32.4677 51.7997L32.4356 51.8842C31.9774 53.0484 31.55 54.2041 31.1217 55.3624L31.1216 55.3627L31.1215 55.363C30.8516 56.0929 30.5813 56.8238 30.3027 57.5584L30.272 57.6588L30.2204 57.8582C30.1843 57.9914 30.1369 58.1262 30.0295 58.2695L29.937 58.3787C29.3755 58.9765 29.2607 59.4425 29.1362 59.9479C29.1181 60.0213 29.0998 60.0956 29.0799 60.1711C28.8547 60.9646 28.5708 61.7708 28.2299 62.585C28.0028 63.0275 27.7092 63.471 27.3581 63.9021C27.0932 64.2638 26.4448 64.3136 26.3077 64.2357L26.2846 64.2137C26.1543 64.0268 25.9098 64.1558 25.6626 64.2861C25.5892 64.3248 25.5155 64.3637 25.4445 64.3944L25.3615 64.4266C25.2447 64.4782 25.1278 64.5125 25.0179 64.5275C24.7314 63.0759 24.6144 61.5411 24.6679 59.938L25.9372 52.7104C26.0184 52.3206 26.1653 51.9142 26.3737 51.5024C26.4097 51.4076 26.6535 50.1088 26.8945 48.7949L27.3998 45.9873C27.5715 45.0496 27.8824 44.0742 28.3255 43.0821L28.5235 42.6559C28.6412 42.4263 28.7147 42.2007 28.7407 41.9893C29.0577 40.5426 29.5133 39.0588 29.969 37.5746L29.9692 37.5738C30.0953 37.1631 30.2214 36.7523 30.3446 36.3423C30.5365 35.7178 30.6816 35.1059 30.8266 34.4942L30.8267 34.4942C30.9069 34.1559 30.9871 33.8177 31.0751 33.4775C31.1333 33.3009 31.2038 33.122 31.2862 32.9419C31.3866 32.7144 31.4696 32.489 31.5345 32.2675C31.7796 31.1424 32.1282 29.9891 32.4766 28.8365L32.4766 28.8365C32.8206 27.6984 33.1644 26.561 33.408 25.4525C33.4636 25.2236 33.7083 24.5868 33.9736 23.8962L33.9736 23.8962C34.3086 23.0243 34.6764 22.0667 34.7384 21.7364C34.8011 21.5389 34.9954 21.1848 35.1911 20.8282C35.4061 20.4364 35.6227 20.0417 35.6682 19.8485L35.6768 19.7812C35.7229 19.0855 36.2474 18.2644 37.0568 17.621C37.3197 17.3868 37.9923 17.2163 38.0242 17.4192C38.0393 17.4774 38.0547 17.5354 38.0701 17.5934ZM6.10072 52.4987C5.9905 51.8689 6.45047 51.2536 7.11943 50.6063C7.3479 50.3925 7.99102 50.2496 8.09461 50.4154C8.3055 50.718 8.45931 51.0961 8.59254 51.4444C8.62957 51.5613 8.7265 52.5958 8.8327 53.7292L8.8327 53.7292C8.9301 54.7687 9.03528 55.8913 9.10918 56.4653C9.23843 57.6265 9.28627 58.8151 9.25247 60.0247L8.84318 67.3855C8.81681 67.8218 8.7547 68.2653 8.6574 68.7125L8.57784 69.0486C8.10781 70.9689 7.86692 72.8667 7.85946 74.7083C7.81061 75.0333 7.84604 75.3412 7.96301 75.608C8.25662 76.0292 7.64991 81.1329 7.43656 81.84C6.95603 83.2762 6.57491 84.6804 6.18466 86.1183C6.11309 86.3819 6.04121 86.6467 5.96836 86.9131C5.95151 86.976 5.94283 87.0386 5.93413 87.1014C5.90965 87.2781 5.88491 87.4566 5.67724 87.6483C5.15582 88.1472 5.08322 88.5679 5.00963 88.9942C4.99456 89.0816 4.97944 89.1691 4.96042 89.2577C4.81035 89.9816 4.61455 90.7097 4.37401 91.4384C4.16451 91.8238 3.90452 92.197 3.60103 92.5479C3.34876 92.9022 2.61032 92.8734 2.54002 92.7726C2.40082 92.5729 2.15192 92.6907 1.90302 92.8085L1.90288 92.8086C1.8043 92.8552 1.70573 92.9019 1.61397 92.9288C1.50012 92.9676 1.38547 92.9916 1.27395 93C0.708926 91.6643 0.283935 90.2543 0.00310359 88.7837L0 88.5085C0.000274434 88.4215 0.0015992 88.3165 0.00495603 88.1968L0.108727 85.7211L0.163153 84.7735C0.224101 83.5361 0.240281 82.4581 0.232222 82.195C0.260897 81.8408 0.355825 81.4753 0.513174 81.1133C0.54473 81.0302 0.583027 80.0021 0.624248 78.8955C0.672763 77.5931 0.725328 76.182 0.77572 76.0748C0.840256 75.1957 1.06572 74.2888 1.44269 73.3892L1.59113 73.0523C1.68918 72.8508 1.74122 72.6452 1.74356 72.45C1.8961 71.2067 2.1812 69.9464 2.46744 68.6811L2.46765 68.6802C2.5155 68.4687 2.56338 68.257 2.61068 68.0453L2.77249 67.3057C2.90014 66.7965 2.97595 66.2759 3.05238 65.751C3.10321 65.4019 3.15432 65.051 3.22114 64.7003C3.26212 64.5368 3.31884 64.3727 3.39061 64.2097C3.46854 64.0089 3.52779 63.8075 3.56766 63.6078C3.68675 62.6238 3.88792 61.6274 4.08918 60.6305C4.30498 59.5616 4.52089 58.4921 4.63586 57.4368C4.66277 57.2364 4.82045 56.6969 4.99384 56.1035C5.22603 55.3089 5.48642 54.4179 5.49879 54.1156C5.50376 53.9848 5.64411 53.6785 5.78829 53.3639C5.9544 53.0015 6.12561 52.6279 6.10072 52.4987Z" fill="#CBD5E1"/>
</g>
</svg>
